<svg width="101" height="101" viewBox="0 0 101 101" fill="none" xmlns="http://www.w3.org/2000/svg">
<path d="M49.8305 62.0298C54.7934 62.0298 58.8558 58.2227 58.8558 53.5298C58.8558 51.6828 58.2154 49.9677 57.1548 48.573C55.5138 46.4433 52.8523 45.0298 49.8505 45.0298C46.8487 45.0298 44.1871 46.4244 42.5462 48.573C41.4855 49.9677 40.8452 51.6828 40.8452 53.5298C40.8252 58.2227 44.8675 62.0298 49.8305 62.0298Z" fill="white"/>
<path d="M68.7676 42.7756V34.3838H67.6841L60.3708 34.4031L60.4095 42.7949L68.7676 42.7756Z" fill="white"/>
<path d="M63.4508 52.708C63.4508 59.5742 57.3501 65.1597 49.8505 65.1597C42.3508 65.1597 36.2501 59.5742 36.2501 52.708C36.2501 51.0537 36.6193 49.4706 37.2604 48.0298H29.8386V66.6717C29.8386 69.0731 31.9757 71.0298 34.5987 71.0298H65.1022C67.7252 71.0298 69.8624 69.0731 69.8624 66.6717V48.0298H62.4405C63.1011 49.4706 63.4508 51.0537 63.4508 52.708Z" fill="white"/>
<path d="M50.0298 0C22.3961 0 0 22.3961 0 50.0298C0 77.6634 22.3961 100.06 50.0298 100.06C77.6634 100.06 100.06 77.6634 100.06 50.0298C100.06 22.3961 77.6634 0 50.0298 0ZM75.0446 65.3709C75.0446 70.7061 70.7061 75.0446 65.3709 75.0446H34.6886C29.3534 75.0446 25.0149 70.7061 25.0149 65.3709V34.6691C25.0149 29.3339 29.3534 24.9953 34.6886 24.9953H65.3709C70.7061 24.9953 75.0446 29.3339 75.0446 34.6691V65.3709Z" fill="white"/>
</svg>
